<svg width="135" height="30" viewBox="0 0 135 30" fill="none" xmlns="http://www.w3.org/2000/svg">
<path d="M28.8779 12.2434C28.6763 10.9424 28.172 9.64143 27.5669 8.44052C26.9618 8.84082 26.2559 9.04097 25.4491 9.04097C23.2303 9.04097 21.4151 7.23961 21.4151 5.03795C21.4151 4.13727 21.7176 3.33666 22.2218 2.63613C20.6083 1.63538 18.8938 0.93485 16.9776 0.534547C16.1709 0.334396 15.4648 1.03493 15.4648 1.83553V5.2381C15.4648 5.83855 15.8682 6.43901 16.4734 6.53908C19.4989 7.33969 21.9193 9.64143 22.7261 12.6437C22.9278 13.2441 23.4321 13.6444 24.0371 13.6444H27.466C28.3738 13.8446 29.0797 13.044 28.8779 12.2434Z" fill="#FD5B0E"/>
<path d="M6.1867 12.8439C6.9935 9.8416 9.41392 7.43979 12.4395 6.73926C13.0446 6.53911 13.448 6.03873 13.448 5.43827V1.93563C13.448 1.13502 12.6411 0.434494 11.9352 0.634645C5.88415 1.73548 1.14417 6.33895 0.034815 12.2434C-0.166887 13.044 0.539065 13.8446 1.34588 13.8446H4.87565C5.48074 13.8446 6.08585 13.3443 6.1867 12.8439Z" fill="#FD5B0E"/>
<path d="M12.4395 23.2517C9.41392 22.4511 6.9935 20.1494 6.1867 17.1471C5.985 16.5467 5.48074 16.1464 4.87565 16.1464H1.34588C0.539066 16.1464 -0.166887 16.947 0.034815 17.7476C1.14417 23.652 5.88415 28.2554 11.8343 29.3563C12.6411 29.5565 13.3471 28.8559 13.3471 28.0553V24.6527C13.448 23.8521 13.0446 23.3518 12.4395 23.2517Z" fill="#FD5B0E"/>
<path d="M22.827 17.0471C22.0201 20.0493 19.5997 22.3511 16.5743 23.1517C15.9692 23.3519 15.5658 23.8522 15.5658 24.4527V27.8552C15.5658 28.6558 16.3726 29.3564 17.0786 29.1563C23.0287 28.0554 27.7687 23.4519 28.878 17.5475C29.0798 16.7469 28.3738 15.9463 27.567 15.9463H24.0372C23.432 16.0463 22.9279 16.4466 22.827 17.0471Z" fill="#FD5B0E"/>
<path d="M25.5501 1.13513C24.2389 1.13513 23.1297 1.73559 22.4236 2.63627C24.6423 4.03732 26.4577 6.03884 27.6679 8.44065C28.7772 7.74012 29.584 6.43914 29.584 5.03808C29.584 2.93649 27.7687 1.13513 25.5501 1.13513Z" fill="#FD5B0E"/>
<path d="M36.9782 26.1294C36.5961 26.1294 36.2863 25.8196 36.2863 25.4375V11.5944C36.2863 11.2123 36.5961 10.9025 36.9782 10.9025H40.3881C40.7702 10.9025 41.0799 11.2123 41.0799 11.5944V25.4375C41.0799 25.8196 40.7702 26.1294 40.3881 26.1294H36.9782ZM38.6988 8.80332C37.9468 8.80332 37.3202 8.55267 36.8189 8.05138C36.3385 7.52919 36.0983 6.90257 36.0983 6.17152C36.0983 5.41957 36.3385 4.79295 36.8189 4.29166C37.3202 3.79036 37.9468 3.53971 38.6988 3.53971C39.4507 3.53971 40.0669 3.79036 40.5473 4.29166C41.0277 4.79295 41.2679 5.41957 41.2679 6.17152C41.2679 6.90257 41.0277 7.52919 40.5473 8.05138C40.0669 8.55267 39.4507 8.80332 38.6988 8.80332Z" fill="#220032"/>
<path d="M44.9595 26.1294C44.5774 26.1294 44.2676 25.8196 44.2676 25.4375V4.70157C44.2676 4.31945 44.5774 4.00968 44.9595 4.00968H47.3987C47.6343 4.00968 47.8537 4.12953 47.9809 4.32776L56.0038 16.8239C56.2125 17.1489 55.9791 17.576 55.5929 17.576V17.576C55.2071 17.576 54.9736 17.1496 55.1816 16.8245L63.1754 4.32871C63.3026 4.12994 63.5223 4.00968 63.7583 4.00968H66.2281C66.6102 4.00968 66.9199 4.31945 66.9199 4.70156V25.4375C66.9199 25.8196 66.6102 26.1294 66.2281 26.1294H62.6929C62.3107 26.1294 62.001 25.8196 62.001 25.4375V12.7455C62.001 12.5255 62.2077 12.3641 62.4212 12.4174V12.4174C62.6457 12.4736 62.7487 12.7335 62.6238 12.9282L57.4115 21.0489C57.2843 21.2472 57.0649 21.3671 56.8293 21.3671H54.3281C54.0919 21.3671 53.872 21.2465 53.7449 21.0474L48.5519 12.9117C48.4322 12.7242 48.5303 12.4744 48.7457 12.4186V12.4186C48.953 12.3648 49.1553 12.5213 49.1553 12.7355V25.4375C49.1553 25.8196 48.8455 26.1294 48.4634 26.1294H44.9595Z" fill="#220032"/>
<path d="M77.4283 26.474C75.8618 26.474 74.4414 26.1294 73.1673 25.4401C71.9141 24.7299 70.9219 23.7691 70.1909 22.5576C69.4598 21.3462 69.0943 19.9885 69.0943 18.4846C69.0943 16.9807 69.4598 15.6335 70.1909 14.4429C70.9219 13.2523 71.9141 12.3124 73.1673 11.6231C74.4205 10.9129 75.8409 10.5579 77.4283 10.5579C79.0158 10.5579 80.4361 10.9025 81.6893 11.5918C82.9426 12.2811 83.9347 13.2314 84.6658 14.4429C85.3968 15.6335 85.7624 16.9807 85.7624 18.4846C85.7624 19.9885 85.3968 21.3462 84.6658 22.5576C83.9347 23.7691 82.9426 24.7299 81.6893 25.4401C80.4361 26.1294 79.0158 26.474 77.4283 26.474ZM77.4283 22.119C78.1176 22.119 78.7233 21.9728 79.2455 21.6804C79.7677 21.3671 80.1646 20.9389 80.4361 20.3958C80.7285 19.8318 80.8747 19.1948 80.8747 18.4846C80.8747 17.7744 80.7285 17.1583 80.4361 16.6361C80.1437 16.093 79.7364 15.6753 79.2142 15.3828C78.7129 15.0695 78.1176 14.9129 77.4283 14.9129C76.7599 14.9129 76.1646 15.0695 75.6425 15.3828C75.1203 15.6753 74.713 16.093 74.4205 16.6361C74.1281 17.1791 73.9819 17.8058 73.9819 18.5159C73.9819 19.2052 74.1281 19.8318 74.4205 20.3958C74.713 20.9389 75.1203 21.3671 75.6425 21.6804C76.1646 21.9728 76.7599 22.119 77.4283 22.119Z" fill="#220032"/>
<path d="M94.8851 26.474C93.3185 26.474 91.8982 26.1294 90.6241 25.4401C89.3499 24.7508 88.3473 23.8004 87.6163 22.589C86.8852 21.3775 86.5197 20.0198 86.5197 18.5159C86.5197 16.9912 86.8852 15.6335 87.6163 14.4429C88.3682 13.2314 89.3813 12.2811 90.6554 11.5918C91.9295 10.9025 93.3603 10.5579 94.9477 10.5579C96.1383 10.5579 97.2245 10.7667 98.2062 11.1845C99.0057 11.501 99.7323 11.9503 100.386 12.5325C100.666 12.782 100.658 13.213 100.393 13.4782L98.316 15.5549C98.0352 15.8358 97.5796 15.8149 97.2575 15.5824C97.0379 15.4238 96.8006 15.2946 96.5456 15.1948C96.0861 15.0069 95.5535 14.9129 94.9477 14.9129C94.2585 14.9129 93.6423 15.0695 93.0992 15.3828C92.577 15.6753 92.1593 16.093 91.846 16.6361C91.5535 17.1583 91.4073 17.7744 91.4073 18.4846C91.4073 19.1948 91.5535 19.8214 91.846 20.3645C92.1593 20.9075 92.5875 21.3357 93.1305 21.649C93.6736 21.9623 94.2793 22.119 94.9477 22.119C95.5744 22.119 96.1279 22.0146 96.6083 21.8057C96.8776 21.6823 97.1258 21.5347 97.3529 21.363C97.6709 21.1227 98.1296 21.105 98.41 21.3883L100.46 23.4594C100.723 23.7251 100.729 24.1541 100.452 24.4053C99.7816 25.0142 99.0433 25.4949 98.2375 25.8474C97.2349 26.2651 96.1174 26.474 94.8851 26.474Z" fill="#220032"/>
<path d="M113.188 26.1294C112.806 26.1294 112.496 25.8196 112.496 25.4375V17.4507C112.496 16.657 112.245 16.0199 111.744 15.5395C111.264 15.0382 110.648 14.7875 109.896 14.7875C109.373 14.7875 108.914 14.9024 108.517 15.1322C108.12 15.3411 107.807 15.6544 107.577 16.0721C107.523 16.1662 107.475 16.2639 107.433 16.3651C107.238 16.8389 106.695 17.1866 106.235 16.9606L105.771 16.7321C105.534 16.6158 105.381 16.3748 105.395 16.1114C105.449 15.098 105.696 14.1972 106.136 13.409C106.637 12.5108 107.337 11.8215 108.235 11.3411C109.133 10.8398 110.167 10.5892 111.337 10.5892C112.527 10.5892 113.572 10.8398 114.47 11.3411C115.368 11.8215 116.057 12.5004 116.538 13.3776C117.039 14.234 117.29 15.2366 117.29 16.3854V25.4375C117.29 25.8196 116.98 26.1294 116.598 26.1294H113.188ZM103.131 26.1294C102.749 26.1294 102.439 25.8196 102.439 25.4375V4.07494C102.439 3.69282 102.749 3.38306 103.131 3.38306H106.541C106.923 3.38306 107.232 3.69283 107.232 4.07494V25.4375C107.232 25.8196 106.923 26.1294 106.541 26.1294H103.131Z" fill="#220032"/>
<path d="M126.102 26.4427C124.703 26.4427 123.449 26.098 122.342 25.4088C121.256 24.7195 120.389 23.7795 119.742 22.589C119.115 21.3984 118.802 20.0407 118.802 18.5159C118.802 16.9912 119.115 15.6335 119.742 14.4429C120.389 13.2523 121.256 12.3124 122.342 11.6231C123.449 10.9338 124.703 10.5892 126.102 10.5892C127.125 10.5892 128.045 10.7876 128.859 11.1845C129.695 11.5813 130.373 12.1349 130.896 12.845C131.418 13.5343 131.71 14.328 131.773 15.2262V21.8057C131.71 22.7038 131.418 23.508 130.896 24.2182C130.394 24.9075 129.726 25.4505 128.89 25.8474C128.055 26.2443 127.125 26.4427 126.102 26.4427ZM127.073 22.119C128.097 22.119 128.922 21.7848 129.548 21.1164C130.175 20.4271 130.488 19.5603 130.488 18.5159C130.488 17.8058 130.342 17.1791 130.05 16.6361C129.778 16.093 129.381 15.6753 128.859 15.3828C128.358 15.0695 127.773 14.9129 127.105 14.9129C126.436 14.9129 125.841 15.0695 125.319 15.3828C124.817 15.6753 124.41 16.093 124.097 16.6361C123.804 17.1791 123.658 17.8058 123.658 18.5159C123.658 19.2052 123.804 19.8214 124.097 20.3645C124.389 20.9075 124.797 21.3357 125.319 21.649C125.841 21.9623 126.426 22.119 127.073 22.119ZM130.992 26.1294C130.61 26.1294 130.3 25.8196 130.3 25.4375V22.0918C130.3 22.0474 130.305 22.0031 130.313 21.9594L130.995 18.4603C131.012 18.3729 131.012 18.283 130.995 18.1956L130.313 14.6965C130.305 14.6528 130.3 14.6085 130.3 14.5641V11.5944C130.3 11.2123 130.61 10.9025 130.992 10.9025H134.308C134.69 10.9025 135 11.2123 135 11.5944V25.4375C135 25.8196 134.69 26.1294 134.308 26.1294H130.992Z" fill="#220032"/>
</svg>
